<svg xmlns="http://www.w3.org/2000/svg" width="519.969" height="725.969" viewBox="0 0 519.969 725.969">
	<metadata>
		<author>
			soupLee in github
		</author>
	</metadata>
	<defs>
		<style>
			.cls-1 {
			fill-rule: evenodd;
			}
		</style>
	</defs>
	<path id="song" data-name="song" class="cls-1" d="M416.712,131.778C438.1,149.9,430.677,274.9,428.648,294.954c-3.787,27.2,2.588,44.939,11.936,47.758,5.479,1.653,14.052-2.456,25.62-14.364A68.292,68.292,0,0,0,481.7,302.913a163.743,163.743,0,0,0,9.283-31.839c0.58-3.146,1.091-6.575,1.534-10.061,1.51-11.9,1.516-21.306,5.1-31.065a66.716,66.716,0,0,1,6.631-13.266,20.534,20.534,0,0,1,10.61-6.633,20.87,20.87,0,0,1,13.2,1.132c20.142,8.941,24.971,60.849,8.025,101.019a117.224,117.224,0,0,1-14.589,25.206q-11.808,9.186-23.606,18.329c-14.2,11-30.243,23.359-42.309,32.352-5.887,4.388-11.726,8.691-17.636,13a24.921,24.921,0,0,0-1.326,31.839,159.1,159.1,0,0,1,39.146,20.225,155.346,155.346,0,0,1,50.966,60.474c3.535,7.577,5.832,15.051,8.027,21.452a421.5,421.5,0,0,1,22.546,128.684c0.275,13.694-4.307,60.613-17.241,62.351-9.977,1.341-22.984-24.555-29.176-46.432-7.257-25.634-2.639-49.037-5.305-68.985a241.526,241.526,0,0,0-18.567-65A246.676,246.676,0,0,0,468.435,511.2c-10.741-15.045-21.563-26.247-29.177-23.88-10.831,3.368-10.223,32.653-9.823,69.866,0.253,23.5-.416,45.692.116,69.189,0.244,10.771.324,33.589,0.423,50.654,0.133,22.708.134,45.1,0,67.658-0.007,18.646-.061,45.09,0,55.719,0.077,13.11.168,38.2-14.588,50.412-4.679,3.874-8.231,4.623-10.61,3.98-7.159-1.936-9.567-15.843-10.609-27.86-4.42-50.972-11.379-194.421-5.3-250.733,4.846-44.929,7.98-83.4-3.979-87.558-10.713-3.729-29.2,21.61-40.408,39.263-21.241,33.446-28.337,62.662-29.881,86.767-2.293,35.807,7.12,60.7-6.631,95.518-5.294,13.4-10.59,21.447-15.915,21.226-10.617-.441-17.7-33.546-20.024-48.582-5.177-33.493-.722-81.956,17.372-139.8,4.1-13.12,9.386-27.209,18.567-42.452a175.083,175.083,0,0,1,48.506-52.593,168.88,168.88,0,0,1,20.457-12.412A21.911,21.911,0,0,0,388.862,417a21.513,21.513,0,0,0-6.631-15.92c-8.873-5.717-17.626-11.138-26.7-16.534-10.516-6.256-20.893-12.142-31.658-17.958A117.834,117.834,0,0,1,277.46,300.26a160.556,160.556,0,0,1-4.865-42.017c0.132-7.838.667-16.083,1.68-20.647,4.075-18.353,10.41-28.623,19.1-30.2,5.81-1.055,11.9,1.889,17.24,6.633a144.3,144.3,0,0,1,7.107,16.445c10.572,29.411,3.711,63.7,21.711,90.627a75.473,75.473,0,0,0,20.252,20.285c7.4,2.644,13.9,3.016,18.567,0,9.324-6.024,8.17-23.369,6.945-34.016-8.9-77.27-6.6-148.854,3.665-167.633,2.852-5.215,6.169-7.91,9.283-9.286C403.622,128.032,410.129,128.826,416.712,131.778Zm200.057,48.171c3.468,0.044,7.533,2.286,12.138,8.874,17.358,24.834,12.561,68.64,11.935,72.965-8.1,56-5.976,95.089-26.609,142.854-8.561,19.817-39.663,85.668-62.417,81.02-5.17-1.057-8.806-5.74-10.475-8.537-6.421-10.762-1.955-25.721,6.666-42.875,11.449-22.779,25.981-38.093,35.808-58.372,4.458-9.2,10.372-32.283,12.4-55.58,2.1-24.013-1.733-49.461-1.8-66.47a289.341,289.341,0,0,1,5.305-55.719C603.922,186.471,610.514,179.871,616.769,179.949Zm127.518,85.819c-0.721,17.5-.737,35.152,0,50.412a292.308,292.308,0,0,0,10.61,65.005,296.119,296.119,0,0,0,22.095,54.451c6.333,11.878,17.526,30.9,11.06,47.7-2.953,7.671-6.74,10.928-10.61,11.94-3.97,1.039-8.216-.175-11.936-2.653-28.531-32.341-49.354-68.929-61-108.784a297.023,297.023,0,0,1-7.958-35.819c-5.506-34.014-4.284-60.756-1.451-93.772,1.624-18.934,3.41-37.414,5.43-56.138,1.8-6.7,5.859-13,11.936-14.593,4.69-1.233,10.672.38,18.567,7.96C748.152,207.92,745.524,235.759,744.287,265.768ZM670.8,444.652c21.794,21.9,17.59,69.477,2.306,103.1-9.379,20.633-24.088,38.3-42.875,52.329-13.716,18.076-20.882,40.413-16.611,62.478a69.167,69.167,0,0,0,8.653,22.427c13.121,17.038,33.176,26.814,52.715,23.878,26.46-3.976,43.436-30.009,45.821-51.323,1.937-17.3-5.768-34.389-11-57.46-1.378-6.069-3.51-17.1,2.652-23.879,3.56-3.917,8.7-5.03,11.813-5.223,11.488-.711,22.644,9.589,32.116,24.159,19.224,29.568,21.748,76.354-1.49,113.727-11.348,18.251-33.4,41.473-66.311,47.759-45.97,8.779-91.049-19.264-111.4-57.045-17.472-32.435-16.236-70.263-2.652-98.171,3.085-6.338,12.335-18.524,21.219-29.186,5.643-6.773,14.71-15.271,21.085-24.745,8.291-12.319,23.118-39.868,19.51-68.935-1.34-10.79-5.149-23.169,1.844-33.677,2.15-3.23,6.719-8.392,13.262-9.286C657.177,434.794,663.639,437.453,670.8,444.652Z" transform="translate(-270.031 -129)" />
</svg>
